<?xml version="1.0" encoding="UTF-8"?>
<svg id="_图层_2" data-name="图层 2" xmlns="http://www.w3.org/2000/svg" viewBox="0 0 184.91 57.28">
  <defs>
    <style>
      .cls-1 {
        fill: none;
      }

      .cls-1, .cls-2 {
        stroke-width: 0px;
      }

      .cls-2 {
        fill: #ec7102;
      }
    </style>
  </defs>
  <g id="Layer_1" data-name="Layer 1">
    <path class="cls-1" d="M171.84,53.91c0,.2.1.3.1.4s.2.1.4.1.3,0,.4-.1c.2-.1.2-.2.2-.4v-2.2h-1.1v2.2h0Z"/>
    <path class="cls-2" d="M182.01,49.88h2.9v-1.62c0-.73-.4-1.24-1.1-1.66-.6-.31-1.5-.41-2.6-.41s-2,.1-2.6.41c-.7.31-1.1.93-1.1,1.66v3.52h4.2v2.34c0,.21-.1.31-.1.41s-.2.1-.4.1-.3,0-.4-.1c-.1-.1-.1-.21-.1-.41v-1.87h-3.2v1.77c0,.73.4,1.24,1.1,1.66.6.31,1.5.41,2.6.41s2-.1,2.6-.41c.7-.31,1.1-.93,1.1-1.66v-3.53h-4.2v-2.34c0-.21.1-.31.1-.41s.2-.1.4-.1.3,0,.4.1c.1.1.1.21.1.41v1.72h.3Z"/>
    <path class="cls-2" d="M176.14,53.78v-5.59c0-.7-.4-1.3-1.1-1.6-.6-.3-1.5-.4-2.6-.4s-2,.1-2.6.4c-.7.4-1.1.9-1.1,1.6v1.9h3.2v-2c0-.2,0-.3.1-.4.1-.1.2-.1.4-.1s.4,0,.4.1.1.2.1.4v2.3h-4.2v3.7c0,.8.3,1.3,1.1,1.6.6.3,1.5.4,2.6.4.35,0,.68-.03.99-.07,1.66-.23.87.07,1.45.07h2.21v-2.3h-.66c-.1,0-.19,0-.29-.01ZM172.94,54.19c0,.2,0,.3-.2.4-.1.1-.2.1-.4.1s-.4,0-.4-.1-.1-.2-.1-.4v-2.2h1.1v2.2h0Z"/>
    <rect class="cls-2" x="164.73" y="44.04" width="3.15" height="12.05"/>
    <path class="cls-2" d="M162.84,54.29c-.3-.1-.4-.3-.4-.6v-5.9h1.7v-1.5h-1.7v-2h-3.2v2h-1.4v1.5h1.4v6c0,1,.2,1.6.5,1.9.3.3,1.1.4,2.5.4h2v-1.7h-.6c-.3,0-.6,0-.8-.1Z"/>
    <g id="a">
      <path class="cls-2" d="M158.24,55.81h-5.6l-1-5.3h-2.6l-1,5.3h-5.6l4.3-19.9h7.3c-.2,0,4.2,19.9,4.2,19.9ZM151.04,47.71l-.8-6-.8,6h1.6Z"/>
    </g>
    <g id="c">
      <path class="cls-2" d="M124.45,52.53c0,1.5-.85,2.78-2.35,3.42-1.28.64-2.99.86-5.56.86s-4.28-.21-5.56-.86c-1.5-.64-2.35-1.92-2.35-3.42v-12.4c0-1.5.86-2.78,2.35-3.42,1.28-.64,3.21-1.07,5.56-1.07s4.06.21,5.34.86c1.5.64,2.35,1.71,2.35,3.42v4.92h-6.63v-5.13c0-.43-.21-.64-.21-.86s-.43-.21-.86-.21-.64,0-.86.21c-.21.21-.43.43-.43.86v12.82c0,.43.21.64.21.86s.43.21.86.21.64,0,.86-.21c.21-.21.21-.43.21-.86v-4.92h6.84l.23,4.92h0Z"/>
    </g>
    <path class="cls-2" d="M100.81,54c0,.22.11.33.11.44s.22.11.44.11.33,0,.44-.11c.22-.11.22-.22.22-.44v-2.43h-1.21s0,2.43,0,2.43Z"/>
    <path class="cls-2" d="M98.39,46.59c-.44-.3-.99-.4-1.76-.4-.55,0-.88,0-1.32.1s-.66.2-.88.3v-.4h-3.53v9.9h3.53v-7.98c0-.1,0-.2.11-.3s.22-.1.44-.1c.33,0,.55.2.55.51v2.12h3.53s0-2.73.11-2.73c0-.41-.33-.71-.78-1.02Z"/>
    <rect class="cls-2" x="86.07" y="50.09" width="3.53" height="6"/>
    <path class="cls-2" d="M89.78,46.12h-3.64v2.52h3.64v-2.03s0-.03.02-.04v-.35h-.02v-.1Z"/>
    <path class="cls-2" d="M128.52,47.8c-.2,0-.3,0-.4.1-.1.1-.2.2-.2.4v2.2h1.1v-2.2c0-.2-.1-.3-.1-.4,0-.1-.2-.1-.4-.1Z"/>
    <path class="cls-2" d="M131.74,46.59c-.6-.3-1.5-.4-2.6-.4s-2,.2-2.6.5c-.7.3-1.1.9-1.1,1.6v5.8c0,.7.4,1.3,1.1,1.6.6.3,1.5.4,2.6.4s2-.1,2.6-.4c.7-.4,1.1-.9,1.1-1.6v-1.9h-3.2v2c0,.2,0,.3-.1.4-.1.1-.2.1-.4.1s-.4,0-.4-.1-.1-.2-.1-.4v-2.3h4.2v-3.7c0-.8-.3-1.3-1.1-1.6ZM129.74,50.29h-1.1v-2.2c0-.2.1-.3.2-.4.1-.1.2-.1.4-.1s.4,0,.4.1.1.2.1.4v2.2h0Z"/>
    <rect class="cls-2" x="133.83" y="44.04" width="3.15" height="12.05"/>
    <rect class="cls-2" x="137.83" y="44.04" width="3.15" height="12.05"/>
    <path class="cls-2" d="M59.04,32.32c0-5.76-4.67-10.43-10.43-10.43h-21.38v27.53c-10.9-.69-19.56-9.77-19.56-20.85S17.05,7.67,28.57,7.67c7.71,0,14.45,4.2,18.07,10.42h2.8c2.24,0,4.35.52,6.24,1.44C51.88,8.2,41.16,0,28.57,0,12.81,0,0,12.82,0,28.57s12.1,27.84,27.23,28.53v.03h10.94v-14.38h10.43c5.76,0,10.43-4.67,10.43-10.43h.01ZM45.39,35.92h-7.22v-7.2h7.22c1.99,0,3.6,1.61,3.6,3.6s-1.61,3.6-3.6,3.6Z"/>
    <polygon class="cls-2" points="42.33 45.64 48.15 57.28 60.46 57.28 54.06 45.82 42.33 45.64"/>
    <path class="cls-2" d="M66.83,46.59c-.6-.3-1.5-.4-2.6-.4s-2,.2-2.6.5c-.7.3-1.1.9-1.1,1.6v5.8c0,.7.4,1.3,1.1,1.6.6.3,1.5.4,2.6.4s2-.1,2.6-.4c.7-.4,1.1-.9,1.1-1.6v-1.9h-3.2v2c0,.2,0,.3-.1.4-.1.1-.2.1-.4.1s-.4,0-.4-.1-.1-.2-.1-.4v-2.3h4.2v-3.7c0-.8-.3-1.3-1.1-1.6ZM64.83,50.29h-1.1v-2.2c0-.2.1-.3.2-.4.1-.1.2-.1.4-.1s.4,0,.4.1.1.2.1.4v2.2Z"/>
    <path class="cls-2" d="M73.21,49.86l2.9-.06v-.11l-.02-.85-.02-.66c-.02-.72-.43-1.23-1.14-1.63-.61-.3-1.51-.38-2.61-.36s-2,.15-2.59.47c-.69.33-1.08.96-1.06,1.68l.08,3.52,4.2-.09.06,2.33c0,.21-.09.31-.09.42,0,.1-.2.11-.4.11s-.3,0-.4-.09-.1-.2-.11-.41l-.04-1.87-3.2.07.04,1.77c.02.72.43,1.23,1.14,1.63.61.3,1.51.38,2.61.36s2-.15,2.59-.47c.69-.33,1.08-.96,1.06-1.68l-.08-3.47v-.05l-4.2.09-.06-2.33c0-.21.09-.31.09-.42,0-.1.2-.11.4-.11s.3,0,.4.09.1.2.11.41l.04,1.72h.3Z"/>
    <path class="cls-2" d="M105.83,46.45c-.6-.3-1.5-.4-2.6-.4s-2,.2-2.6.5c-.7.3-1.1.9-1.1,1.6v5.8c0,.7.4,1.3,1.1,1.6.6.3,1.5.4,2.6.4s2-.1,2.6-.4c.7-.4,1.1-.9,1.1-1.6v-1.9h-3.2v2c0,.2,0,.3-.1.4-.1.1-.2.1-.4.1s-.4,0-.4-.1-.1-.2-.1-.4v-2.3h4.2v-3.7c0-.8-.3-1.3-1.1-1.6ZM103.83,50.15h-1.1v-2.2c0-.2.1-.3.2-.4.1-.1.2-.1.4-.1s.4,0,.4.1.1.2.1.4v2.2Z"/>
    <g>
      <polyline class="cls-2" points="80.28 46.59 80.27 46.19 76.75 46.26 76.99 56.09 80.52 56.02 80.32 48.1"/>
      <path class="cls-2" d="M82.62,51.87c1.44-.03,2.57-1.22,2.54-2.66l-.03-1.1c-.02-.8-.33-1.29-1.14-1.57-.61-.29-1.51-.37-2.61-.34s-1.04.58-2.03.71c-.82.11-1.24.35-1.44.66-.13.2-.16.45-.16.45-.02.1-.02.2-.02.36,0,.17.01.3.01.31.02.85.07,3.15.07,3.21M82.08,50.28l-1.1.03-.05-2.2c0-.2.09-.3.19-.4.1-.1.2-.1.4-.11s.4,0,.4.09.1.2.11.4l.05,2.19Z"/>
    </g>
  </g>
</svg>